# xmcd CD database file
#
# Track frame offsets:
#	150
#	10098
#	42843
#	70876
#	94328
#	117700
#	149095
#	177466
#
# Disc length: 2910 seconds
#
# Revision: 1
# Processed by: cddbd v1.5.1PL0 Copyright (c) Steve Scherf et al.
# Submitted via: Feurio! 1.68 - http://www.feurio.com
#
DISCID=770b5c08
DTITLE=Excessum - Death Redemption
DYEAR=2005
DGENRE=Black Metal
TTITLE0=Ceremonial Blessings (Intro)
TTITLE1=Ritual through holy blood
TTITLE2=The mournful held within
TTITLE3=Death redemption
TTITLE4=Lies of the deceiver
TTITLE5=Creations (of the divine architect)
TTITLE6=Bleed eternally
TTITLE7=The Luciferian Flame
EXTD=
EXTT0=
EXTT1=
EXTT2=
EXTT3=
EXTT4=
EXTT5=
EXTT6=
EXTT7=
PLAYORDER=
